# xmcd CD database file
#
# Track frame offsets:
#	150
#	19842
#	37571
#	57818
#	79256
#	105698
#	121711
#	145144
#	165600
#	186779
#	210189
#	228146
#
# Disc length: 3316 seconds
#
# Revision: 0
# Processed by: cddbd v1.5.2PL0 Copyright (c) Steve Scherf et al.
# Submitted via: CDex 1.70beta2
#
DISCID=870cf20c
DTITLE=Select Mix - Select Mix - Country Essentials Volume 4
DYEAR=2007
DGENRE=Country
TTITLE0=Keith Urban - Where The Blacktop Ends (BPM 79)
TTITLE1=Josh Turner - Firecracker (BPM 87)
TTITLE2=Brad Paisley - The World (BPM 88)
TTITLE3=Leann Rimes - Nothin' Better To Do (BPM 99)
TTITLE4=David Lee Murphy - Dust On The Bottle (BPM 100)
TTITLE5=Tim McGraw - Indian Outlaw (BPM 110)
TTITLE6=Brooks and Dunn - Play Something Country (BPM 115)
TTITLE7=Kenny Chesney - Living In Fast Forward (BPM 117)
TTITLE8=George Strait - How 'Bout Them Cowgirls (BPM 117)
TTITLE9=Rascal Flatts - Fast Cars And Freedom (BPM 118)
TTITLE10=Dierks Bentley - Fee And Easy (BPM 120)
TTITLE11=Shania Twain ft Billy Currington - Party For Two (BPM 121)
EXTD=YEAR: 2007
EXTT0=
EXTT1=
EXTT2=
EXTT3=
EXTT4=
EXTT5=
EXTT6=
EXTT7=
EXTT8=
EXTT9=
EXTT10=
EXTT11=
PLAYORDER=
